<svg xmlns="http://www.w3.org/2000/svg" viewBox="0 0 545.18 483.5"><title>PROSTUDIO</title><g id="d3b21b31-281f-42c4-9d93-10be94296f0b" data-name="Layer 2"><g id="222a99ab-eba4-4c8f-9c43-959cc4a01111" data-name="Layer 1"><path d="M232,222.5l-.53.61Z" style="fill:#fff"/><path d="M229.63,225.31l-.42.53Z" style="fill:#fff"/><path d="M227.29,228.43l-.1.15Z" style="fill:#fff"/><path d="M247.07,209.88l-.25.14Z" style="fill:#fff"/><path d="M238.56,216c-.15.12-.29.26-.44.39C238.27,216.29,238.41,216.15,238.56,216Z" style="fill:#fff"/><path d="M242.79,212.7l-.44.32Z" style="fill:#fff"/><polygon points="234.43 219.88 234.44 219.88 234.43 219.88 234.43 219.88" style="fill:#fff"/><path d="M242.35,213c-1.28.94-2.55,1.94-3.79,3Q240.42,214.43,242.35,213Z" style="fill:#fff"/><path d="M219.3,244.65a58.15,58.15,0,0,1,7.89-16.07A58,58,0,0,0,219,245.72Z" style="fill:#fff"/><path d="M246.82,210c-1.37.83-2.71,1.73-4,2.68C244.11,211.75,245.45,210.85,246.82,210Z" style="fill:#fff"/><path d="M232,222.5c.79-.89,1.6-1.76,2.44-2.62h0C233.58,220.74,232.77,221.61,232,222.5Z" style="fill:#fff"/><path d="M251.41,207.52h0c-1.48.71-2.92,1.51-4.34,2.36Q249.2,208.61,251.41,207.52Z" style="fill:#fff"/><path d="M238.12,216.42c-1.25,1.1-2.48,2.24-3.68,3.45C235.63,218.66,236.87,217.52,238.12,216.42Z" style="fill:#fff"/><path d="M231.46,223.11c-.63.72-1.24,1.46-1.83,2.2C230.22,224.56,230.83,223.83,231.46,223.11Z" style="fill:#fff"/><path d="M229.21,225.84c-.66.85-1.3,1.71-1.92,2.59C227.91,227.55,228.55,226.69,229.21,225.84Z" style="fill:#fff"/><path d="M296.19,324.5h167.1a20.5,20.5,0,0,1,0,41H154.63q-20.44,0-20.45-20.5h-41v61.51H463.29q25.75,0,43.63-17.88T524.8,345q0-25.75-17.88-43.63t-43.63-17.88H331.65a65.89,65.89,0,0,1-16.8,27.68A67.73,67.73,0,0,1,296.19,324.5Z" style="fill:#fff"/><path d="M278.77,201.49a59,59,0,0,0-26.13,5.77h0c-1.47.72-2.91,1.51-4.34,2.36l-.24.14c-1.37.83-2.72,1.73-4,2.68l-.43.32c-1.29,1-2.56,2-3.79,3l-.44.39c-1.26,1.1-2.49,2.24-3.69,3.46h0c-.85.86-1.66,1.73-2.45,2.62-.18.2-.35.41-.52.61-.63.73-1.25,1.46-1.84,2.2l-.41.53c-.67.85-1.31,1.72-1.92,2.59l-.11.15a58.57,58.57,0,0,0-7.89,16.07l-.33,1.07A62.76,62.76,0,0,0,217.79,263a64,64,0,0,0,1.53,14.08H264a20.26,20.26,0,0,1,.35-28.53,20.31,20.31,0,0,1,6.79-4.59,20,20,0,0,1,7.66-1.46H463.29q20.5,0,20.5,20.5h41v-61.5Z" style="fill:#fff"/><path d="M326.7,248.91H283.19q4,5.06,4,14.08t-4,14.08q-5,6.42-16.52,6.42H62.18v-41H214.4a67.19,67.19,0,0,1,16.69-27.38,68,68,0,0,1,18.75-13.62H21.18v205h41v-82H266.67q25.75,0,43.64-17.88a58.79,58.79,0,0,0,16.39-29.55,67.72,67.72,0,0,0,0-28.16Z" style="fill:#fff"/><path d="M545.17,428.38H.8V179.61H545.17ZM7.6,421.59H538.37V186.4H7.6Z" style="fill:#fff"/><polygon points="36.98 180.75 19.83 180.75 32.6 152.05 49.76 152.05 36.98 180.75" style="fill:#fff"/><polygon points="68.62 180.75 51.46 180.75 64.24 152.05 81.4 152.05 68.62 180.75" style="fill:#fff"/><polygon points="100.26 180.75 83.1 180.75 95.88 152.05 113.04 152.05 100.26 180.75" style="fill:#fff"/><polygon points="131.9 180.75 114.74 180.75 127.51 152.05 144.67 152.05 131.9 180.75" style="fill:#fff"/><polygon points="163.53 180.75 146.37 180.75 159.15 152.05 176.31 152.05 163.53 180.75" style="fill:#fff"/><polygon points="195.17 180.75 178.01 180.75 190.79 152.05 207.95 152.05 195.17 180.75" style="fill:#fff"/><polygon points="226.81 180.75 209.65 180.75 222.43 152.05 239.58 152.05 226.81 180.75" style="fill:#fff"/><polygon points="258.44 180.75 241.28 180.75 254.06 152.05 271.22 152.05 258.44 180.75" style="fill:#fff"/><polygon points="290.08 180.75 272.92 180.75 285.7 152.05 302.86 152.05 290.08 180.75" style="fill:#fff"/><polygon points="321.72 180.75 304.56 180.75 317.33 152.05 334.49 152.05 321.72 180.75" style="fill:#fff"/><polygon points="353.35 180.75 336.19 180.75 348.97 152.05 366.13 152.05 353.35 180.75" style="fill:#fff"/><polygon points="384.99 180.75 367.83 180.75 380.61 152.05 397.77 152.05 384.99 180.75" style="fill:#fff"/><polygon points="416.63 180.75 399.47 180.75 412.25 152.05 429.4 152.05 416.63 180.75" style="fill:#fff"/><polygon points="448.26 180.75 431.11 180.75 443.88 152.05 461.04 152.05 448.26 180.75" style="fill:#fff"/><polygon points="480.38 180.75 463.22 180.75 476 152.05 493.15 152.05 480.38 180.75" style="fill:#fff"/><polygon points="512.49 180.75 495.33 180.75 508.11 152.05 525.27 152.05 512.49 180.75" style="fill:#fff"/><polygon points="1.11 152.05 0.8 152.75 0.8 180.75 5.49 180.75 18.27 152.05 1.11 152.05" style="fill:#fff"/><polygon points="545.18 152.05 540.22 152.05 527.44 180.75 544.6 180.75 545.18 179.44 545.18 152.05" style="fill:#fff"/><polygon points="501.42 36.1 518.13 32.2 499.16 7.16 482.45 11.06 501.42 36.1" style="fill:#fff"/><polygon points="470.61 43.29 487.32 39.39 468.35 14.35 451.64 18.25 470.61 43.29" style="fill:#fff"/><polygon points="439.8 50.48 456.51 46.58 437.55 21.54 420.84 25.44 439.8 50.48" style="fill:#fff"/><polygon points="408.99 57.67 425.7 53.77 406.74 28.73 390.03 32.63 408.99 57.67" style="fill:#fff"/><polygon points="378.18 64.86 394.89 60.97 375.93 35.92 359.22 39.82 378.18 64.86" style="fill:#fff"/><polygon points="347.38 72.06 364.08 68.16 345.12 43.11 328.41 47.01 347.38 72.06" style="fill:#fff"/><polygon points="316.57 79.25 333.28 75.35 314.31 50.3 297.6 54.2 316.57 79.25" style="fill:#fff"/><polygon points="285.76 86.44 302.47 82.54 283.5 57.49 266.79 61.39 285.76 86.44" style="fill:#fff"/><polygon points="254.95 93.63 271.66 89.73 252.69 64.68 235.98 68.58 254.95 93.63" style="fill:#fff"/><polygon points="224.14 100.82 240.85 96.92 221.88 71.87 205.17 75.77 224.14 100.82" style="fill:#fff"/><polygon points="193.33 108.01 210.04 104.11 191.07 79.06 174.37 82.96 193.33 108.01" style="fill:#fff"/><polygon points="162.52 115.2 179.23 111.3 160.27 86.25 143.56 90.15 162.52 115.2" style="fill:#fff"/><polygon points="131.71 122.39 148.42 118.49 129.46 93.44 112.75 97.34 131.71 122.39" style="fill:#fff"/><polygon points="100.91 129.58 117.61 125.68 98.65 100.64 81.94 104.54 100.91 129.58" style="fill:#fff"/><polygon points="69.63 136.88 86.34 132.98 67.38 107.93 50.67 111.83 69.63 136.88" style="fill:#fff"/><polygon points="38.36 144.18 55.07 140.28 36.1 115.23 19.39 119.13 38.36 144.18" style="fill:#fff"/><polygon points="529.83 0 530.3 0.61 536.66 27.88 532.09 28.94 513.12 3.9 529.83 0" style="fill:#fff"/><polygon points="0 123.66 4.83 122.53 23.8 147.58 7.09 151.47 6.23 150.34 0 123.66" style="fill:#fff"/><polygon points="74.39 182.75 0.8 182.75 0.8 124.16 74.39 182.75" style="fill:#fff"/><path d="M.8,424.59V483.5H545.17V424.59ZM60.33,457a11.36,11.36,0,0,1-9.55,4.86H17.34v14.76H6.73V431.15H50.78A11.36,11.36,0,0,1,60.33,436a16.88,16.88,0,0,1,3.36,10.52A16.47,16.47,0,0,1,60.33,457Zm61.57,0a11.37,11.37,0,0,1-9.64,4.78h-4.07l13.36,14.84H107L84.3,451.12h27.34c1.94,0,2.92-1.56,2.92-4.68s-1-4.69-2.92-4.69H78.73v34.82H68.12V431.15h44.14a11.36,11.36,0,0,1,9.64,4.77,18.54,18.54,0,0,1,0,21ZM186,462.19a13.55,13.55,0,0,1-4.33,10.28,14.78,14.78,0,0,1-10.53,4.1H144.46a14.78,14.78,0,0,1-10.53-4.1,13.56,13.56,0,0,1-4.34-10.28V445.53a13.57,13.57,0,0,1,4.34-10.28,14.78,14.78,0,0,1,10.53-4.1h26.71a14.78,14.78,0,0,1,10.53,4.1A13.56,13.56,0,0,1,186,445.53Zm99.52,10.15a12,12,0,0,1-9.38,4.23H236.89V466h39.28c1.47,0,2.21-1.14,2.21-3.41s-.74-3.4-2.21-3.4H247.6a11.93,11.93,0,0,1-9.38-4.24,14.09,14.09,0,0,1-3.54-9.72,14.55,14.55,0,0,1,3.63-9.9,11.8,11.8,0,0,1,9.29-4.15h39.27v10.6H247.51c-1.48,0-2.21,1.15-2.21,3.45s.73,3.36,2.21,3.36h28.64a12,12,0,0,1,9.39,4.23,15.56,15.56,0,0,1,0,19.55Zm59.53-30.59H324.56v34.82H313.94V441.75H293.42v-10.6h51.66Zm59.71,20.77a14.55,14.55,0,0,1-3.63,9.9,11.77,11.77,0,0,1-9.29,4.15H361.8a11.74,11.74,0,0,1-9.34-4.15,14.7,14.7,0,0,1-3.58-9.9V431.15H359.5v31.37c0,2.3.77,3.45,2.3,3.45H392c1.47,0,2.21-1.15,2.21-3.45V431.15h10.62Zm54.31-.33a13.62,13.62,0,0,1-4.29,10.28,14.61,14.61,0,0,1-10.48,4.1H409.21V431.15h35.12a14.61,14.61,0,0,1,10.48,4.1,13.64,13.64,0,0,1,4.29,10.28Zm15,14.38H463.53V431.15h10.61ZM535,462.38a13.58,13.58,0,0,1-4.33,10.27,14.79,14.79,0,0,1-10.53,4.1H493.42a14.77,14.77,0,0,1-10.52-4.1,13.55,13.55,0,0,1-4.34-10.27V445.71a13.57,13.57,0,0,1,4.34-10.28,14.77,14.77,0,0,1,10.52-4.1h26.72a14.79,14.79,0,0,1,10.53,4.1A13.6,13.6,0,0,1,535,445.71Z" style="fill:#fff"/><path d="M151.56,441.9H143c-.92,0-1.37,1.26-1.37,3.78v16.64c0,2.53.45,3.79,1.37,3.79h8.6c.91,0,1.36-1.26,1.36-3.79V445.68C152.92,443.16,152.47,441.9,151.56,441.9Z" style="fill:#fff"/><path d="M172,441.9h-8.6c-.91,0-1.37,1.26-1.37,3.78v16.64c0,2.53.46,3.79,1.37,3.79H172c.91,0,1.37-1.26,1.37-3.79V445.68C173.32,443.16,172.86,441.9,172,441.9Z" style="fill:#fff"/><path d="M52.26,441.9H18.86v9.45h33.4q2.3,0,2.29-4.68T52.26,441.9Z" style="fill:#fff"/><path d="M445.45,466.11q4.08,0,4.08-3.79V445.68q0-3.78-4.07-3.78H420.9v24.21Z" style="fill:#fff"/><polygon points="502.55 468.34 521.34 454.36 502.55 440.02 502.55 468.34" style="fill:#fff"/></g></g></svg>