<?xml version="1.0" encoding="utf-8"?>
<!-- Generator: Adobe Illustrator 22.0.1, SVG Export Plug-In . SVG Version: 6.00 Build 0)  -->
<svg version="1.1" id="Layer_1" xmlns="http://www.w3.org/2000/svg" xmlns:xlink="http://www.w3.org/1999/xlink" x="0px" y="0px"
	 viewBox="0 0 163.7 143" style="enable-background:new 0 0 163.7 143;" xml:space="preserve">
<style type="text/css">
	.st0{fill:#FFFFFF;}
</style>
<title>Asset 1</title>
<g id="_x37_56bc45d-deb4-4cd0-b0ae-124785f87d07">
	<g id="ea07900c-5a5a-4e21-bf1f-de74b3a7f72a">
		<path class="st0" d="M21.1,98c0.4,1.1,0.8,2.1,1.3,3.1c1.4,2.3,2.9,4.5,4.3,6.7c0.2,0.3,0.5,0.6,0.8,0.9h0.4c0-0.7,0-1.4,0-2.2
			c-0.1-1-0.3-1.9-0.3-2.9c-0.4-3.7,1.6-7.2,5-8.6c0.6-0.3,1.1-0.4,1.3,0.4c1,3.7,1.7,7.4-1,10.7c-0.9,1-2,1.8-3.1,2.4
			c-1.5,1-1.6,1.3-0.4,2.6c2.2,2.3,4.5,4.6,6.7,6.9c0.3,0.3,0.7,0.5,1,0.8l0.3-0.2c-0.2-0.8-0.5-1.7-0.7-2.5
			c-0.8-2.4-1.7-4.7-0.9-7.3c0.6-1.8,1.8-3.4,3.3-4.5c0.4-0.1,0.9-0.1,1.2,0.2c3.3,4.1,2.8,9.9-1,13.5c-1.5,1.3-1.6,1.7,0,2.8
			c2.6,1.8,5.3,3.6,8,5.4c0.4,0.2,0.8,0.4,1.2,0.6l0.3-0.2c-0.3-0.6-0.5-1.2-0.8-1.8c-0.7-1.4-1.6-2.7-2.2-4.1
			c-1.4-3.2-0.5-5.9,1.6-8.5c0.3-0.3,0.7-0.3,1.1-0.2c2.9,1.8,4.8,8.2,3.4,11.3c-0.5,0.9-1.1,1.8-1.7,2.7c-0.5,0.7-0.7,1.5,0.3,1.9
			c3.3,1.4,6.7,2.8,10,4.1c0.4,0.1,0.9,0.1,1.3,0c-0.7-0.9-1.2-1.5-1.8-2.1c-1.2-1.3-2.3-2.7-3.3-4.2c-1.5-2.5-0.9-5.1,0.3-7.5
			c0.3-0.3,0.7-0.4,1.1-0.3c2.8,1.1,6.2,6.4,5.9,9.4c-0.2,1.2-0.5,2.3-1,3.4c-0.7,1.7-0.6,2.1,1.1,2.5c7.1,1.9,14.5,2.6,21.8,2.1
			c4.5-0.4,9-1.3,13.5-2c2-0.3,2.2-0.8,1.3-2.6c-1.7-2.9-1.3-6.5,1-8.9c1.1-1.3,2.3-2.5,3.6-3.6c0.7-0.7,1.2-0.5,1.7,0.4
			c1.7,3.7,1.2,6.7-1.7,9.9l-3.1,3.4l0.3,0.4c0.7-0.2,1.5-0.3,2.2-0.6c2.8-1.1,5.5-2.2,8.3-3.4c1.5-0.7,1.6-1.2,0.6-2.5
			c-3.1-4.3-2.3-10.3,1.8-13.6c0.8-0.6,1.1-0.1,1.5,0.4c2.3,2.8,2.6,6.8,0.5,9.8c-0.9,1.4-1.6,2.8-2.2,4.3c3.9-1.8,7.5-4.2,10.8-7
			c-0.6-0.6-1.1-1.2-1.6-1.7c-2.5-1.9-3.7-5.1-2.8-8.1c0.5-1.6,1-3.2,1.7-4.8c0.4-1,1-1.2,1.9-0.4c3.1,2.8,3.9,5.8,2.6,9.9
			c-0.4,1.2-0.8,2.4-1.1,3.6c0,0.3-0.1,0.7-0.1,1c0.5-0.3,0.9-0.6,1.4-1c2.3-2.3,4.6-4.7,6.8-7c1-1.1,0.9-1.4-0.4-2.2
			c-0.7-0.4-1.4-0.8-2.1-1.3c-1.8-1.2-2.9-3.2-2.9-5.4c0.1-2.1,0.3-4.1,0.5-6.2c0.1-1,0.7-1.2,1.6-0.7c4.1,2.4,5.4,5.4,4.6,10.8
			c-0.1,0.9-0.1,1.8-0.2,2.7l0.5,0.2c0.5-0.7,1.1-1.3,1.5-2c1.5-2.4,3.1-4.8,4.5-7.3c0.8-1.3,0.6-1.8-0.9-2.2c-6-1.5-7.1-6-7.2-11.4
			c0.1-0.5,0.2-1,0.4-1.4c4,0.4,7.2,3.4,7.7,7.4c0.2,1.2,0.3,2.5,0.5,3.7c0.1,0.5,0.3,1,0.4,1.5l0.4,0.1c0.4-0.7,0.7-1.4,1-2.2
			c1-2.6,1.9-5.2,2.8-7.8c0.6-1.7,0.2-2.2-1.6-2.3c-3.4,0.1-6.4-2-7.7-5.2c-0.6-1.5-1.1-3.1-1.6-4.7c-0.3-1,0.1-1.5,1.3-1.3
			c3.9,0.3,7.3,3.1,8.3,6.9c0.4,1.3,0.9,2.5,1.4,3.8h0.6c0.2-1.2,0.6-2.3,0.7-3.5c0.3-2.4,0.6-4.8,0.8-7.3c0.1-1.4-0.4-1.9-1.8-1.6
			c-6,1.3-9.8-3.8-11.5-8.1c-0.3-0.8,0.1-1,0.9-1.1c3.8-0.7,7.6,1.1,9.5,4.5c0.5,0.8,0.9,1.6,1.4,2.4c0.4,0.6,0.9,1.1,1.5,1.4
			c0.1-0.4,0.1-0.9,0.1-1.3c-0.3-3-0.5-6.1-0.9-9.1c-0.3-2-0.6-2-2.6-1.5c-1.4,0.4-3,0.6-4.5,0.5c-3.8-0.6-6.2-3.4-8.3-6.4
			c-0.6-0.8,0.1-1,0.7-1.2c4.7-1.6,8.3,0.2,11.4,3.8c0.7,0.8,1.4,1.5,2.2,2.2l0.5-0.3c-0.3-1.2-0.4-2.3-0.8-3.5
			c-0.7-2.3-1.5-4.6-2.4-6.9c-0.4-1.1-1.1-1.7-2.2-1c-5,3.3-9.2,1.3-13.2-1.9c-0.6-0.5-1.2-1.1-1.7-1.7c3.1-1.9,6-3,9.3-1.3
			c1.4,0.7,2.8,1.7,4.1,2.5c0.7,0.4,1.5,0.8,2.2,1.3l0.4-0.3c-0.8-1.5-1.5-3-2.3-4.4c-0.9-1.7-2-3.3-3-4.9s-1.4-1.6-2.9-0.3
			c-1.4,1.4-3.2,2.3-5.2,2.4c-3.6,0.2-6.7-1.3-9.6-3.2c2.2-3.1,6.2-4.3,9.8-3.1c1.4,0.5,2.8,1.1,4.2,1.7c0.5,0.2,1.1,0.3,1.7,0.5
			l0.3-0.3c-1-1.3-2-2.5-3.1-3.7c-1.4-1.5-2.8-3-4.2-4.4c-1.2-1.2-1.8-1.2-2.7,0.3c-3.4,5.3-10.4,4.1-14.5,2.2
			c-0.1,0-0.1-0.1-0.3-0.3c1.6-2.4,3.6-4.3,6.6-4.5c1.8,0,3.6,0.1,5.3,0.4c1,0.1,2.1,0.3,3.1,0.5l0.2-0.3c-0.2-0.3-0.5-0.6-0.8-0.9
			c-2.6-1.9-5.1-3.8-7.7-5.6c-1.7-1.1-2-1.1-3,0.7c-2.3,4.2-8.1,4.6-12.5,2.6c1-2.6,3.4-4.5,6.2-4.7c1.7,0,3.4,0.2,5.1,0.3
			c0.5,0,1,0,1.5,0c0-0.2,0-0.3,0-0.4c-2.6-1.3-5-2.8-7.7-3.9c-0.9-0.4-2.2,0.2-3.3,0.4c-1.3,0.3-2.6,0.8-3.9,0.9
			c-3,0.4-5.3-1.1-7.1-3.3C94,9.5,94,9.4,94.1,9.3c3.2-2.1,9.4-3.6,12.9,0.5c1,1.2,3,1.6,4.5,2.3l0.3-0.5c-0.8-0.7-1.5-1.5-2.2-2.4
			c-1.2-1.6-2.3-3.3-3.2-5.1c-0.5-1.2-0.1-2.7-0.1-4.1c2.7,0.2,8.1,4.8,8.2,7.2c-0.1,1.3-0.4,2.5-1.1,3.6c-0.8,1.4-0.9,1.5,0.5,2.3
			c2.4,1.4,4.7,2.8,7.1,4.2c0.2,0.1,0.5,0.1,1.1,0c-0.5-0.9-1-1.7-1.5-2.6c-1-2.1-2.1-4.1-2.9-6.2s-0.1-4.1,0.7-6
			c0.3-0.8,0.8-0.8,1.4-0.4c3,2.3,5.3,5.3,6.7,8.8c0.8,2.1-0.2,3.9-1.8,5.5c-2,2-2,2,0.2,3.8s4.4,3.8,6.5,5.7
			c0.4,0.4,0.8,0.6,1.3,0.7c-0.1-0.5-0.2-1.1-0.4-1.6c-0.8-2.3-1.4-4.6-1.9-6.9c-0.4-2.8,0.7-5.3,2.8-7.6c0.6,0.6,1.2,1.3,1.7,2
			c1.3,2.3,2.4,4.7,3.4,7.1c1,2.6-0.1,4.9-2.6,6.5s-2.4,1.5-0.6,3.8s3.5,4.6,5.2,6.9c0.2,0.3,0.5,0.6,0.7,0.9l0.4-0.1l-0.5-5
			c-0.4-3.8,0.3-7.1,3.3-9.8c0.8-0.8,1.4-0.8,1.9,0.3c1.5,3,2.2,6.3,2.3,9.6c0,2.6-1.6,4.1-3.9,5c-2.8,1.1-2.8,1-1.4,3.8
			c1.2,2.4,2.2,4.8,3.3,7.3c0.2,0.5,0.4,1,0.6,1.4l0.4-0.1c0.1-0.7,0.2-1.4,0.3-2.1c0.3-2.7,0.4-5.3,1.7-7.8c0.9-1.7,2.3-3.1,4-4.1
			c0.8-0.5,1.4-0.4,1.6,0.6c1,3.5,1,7.2,0,10.7c-0.8,2.4-2.9,3.2-5.2,3.6c-0.5,0-1,0.1-1.5,0.3c-0.4,0.2-0.8,0.8-0.7,1.1
			c1.1,3.5,1.9,7.1,2.3,10.8c0,0.2,0.2,0.3,0.5,0.7c0.5-1.4,1-2.6,1.3-3.8c0.7-2.3,1.6-4.6,3.4-6.2c1.4-1.1,2.9-2,4.4-2.7
			c0.8-0.4,1.3,0.1,1.3,0.9c0,3.8-0.5,7.5-2.6,10.7c-1.2,1.8-3.2,2.3-5.3,2.2c-3.3-0.2-2.8-0.1-2.7,2.7s-0.1,5.9-0.1,8.8
			c0,0.4,0.1,0.7,0.3,1l1.1-1.6c1.6-2.1,3-4.4,4.8-6.4c1.4-1.6,3.6-2.2,5.7-2.4c1.1-0.1,1.4,0.4,1.2,1.4c-0.7,3.2-2.1,6.2-4,8.9
			c-1.6,2.2-3.9,2.6-6.5,1.9c-2.8-0.7-2.7-0.7-3.3,2.1s-1.3,5.6-2,8.4c-0.1,0.4-0.1,0.9,0.1,1.3c0.5-0.5,1.1-1,1.6-1.5
			c1.9-1.7,3.8-3.5,5.8-5.1c1.8-1.3,3.9-1.4,6.1-1.3c1.3,0,1.4,0.7,0.9,1.6c-0.5,1.1-1.2,2.2-1.9,3.2c-1,1.5-2.2,2.9-3.5,4.3
			c-2.1,2.1-4.7,2.3-7.4,1c-0.4-0.2-0.9-0.5-1.4-0.7c-0.5-0.3-1.1-0.2-1.4,0.3c-0.1,0.1-0.1,0.2-0.2,0.4c-1.5,3.3-3,6.5-4.5,9.7
			c-0.1,0.4-0.2,0.8-0.3,1.1c1.4-1,2.6-1.8,3.8-2.6c2.1-1.6,4.5-2.7,7.1-3.1c1.9-0.2,3.9,0.1,5.6,1c-2.9,3.8-5.8,7.2-10.4,8.4
			c-1.9,0.5-3.6-0.7-5.1-1.9s-1.6-1.2-2.8,0.4c-1.8,2.4-3.7,4.8-5.5,7.2l-1,1.3l0.2,0.3l1.9-0.7c2.3-0.9,4.6-1.7,7-2.4
			c2.8-0.6,5.7,0.1,7.8,2c-0.7,0.8-1.5,1.5-2.3,2.1c-2,1.3-4.1,2.4-6.3,3.5c-2.5,1.3-5.6,0.6-7.4-1.7c-0.3-0.3-0.6-0.7-0.9-1.1
			c-0.6-0.8-1.3-0.9-2.1-0.2c-2.5,2.6-5.3,5-8.3,7.1c-0.1,0.1-0.2,0.3-0.2,0.8c1.5-0.3,3.1-0.6,4.6-0.9c4.1-0.9,7.9-0.7,11.2,2.2
			c0.2,0.2,0.4,0.3,0.9,0.7c-0.8,0.6-1.7,1.2-2.6,1.7c-2.4,0.9-4.9,1.7-7.4,2.3c-2.7,0.7-5.5-0.6-6.7-3.2c-0.3-0.5-0.5-1-0.8-1.5
			c-0.4-0.7-0.9-0.8-1.7-0.4c-3,1.8-6.1,3.4-9.1,5.1l-1,0.6l0.1,0.4c0.7,0,1.3,0,2,0c2.5,0.1,5,0.3,7.4,0.6c2.7,0.6,5,2.3,6.4,4.7
			c-0.7,0.4-1.5,0.7-2.3,0.9c-2.7,0.5-5.4,0.8-8.1,0.9c-3.3,0.1-5.3-1.7-6.1-4.9c-0.5-2.2-0.7-2.3-2.8-1.4
			c-3.8,1.5-7.8,2.6-11.8,3.3c-0.3,0.1-0.6,0.2-0.9,0.4c5.8,1.3,10.6,4,15.5,6.6c0.1,0.1,0.2,0.3,0.5,0.6l-2.7-0.7
			c-0.2-0.1-0.5-0.2-0.7-0.1c-2.2,1.1-3.6-0.7-5.1-1.5c-5.1-2.7-10.8-4-16.5-3.9c-4.4,0.2-8.8,0-13.1,0.4c-4.3,0.5-8.5,1.9-12.2,4.3
			c-0.9,0.6-2,0.9-3.1,0.8c-1.3-0.1-2.7,0.5-4.1,0.6c5-2.7,10-5.6,15.7-7.2c-1.2-0.3-2.4-0.5-3.6-0.8c-3.1-0.9-6.2-1.9-9.3-2.9
			c-1.5-0.5-1.7-0.4-2.1,1.1c-1.1,4.1-3,5.6-7.2,5.4c-2.3-0.2-4.6-0.5-6.8-0.9c-0.8-0.2-1.7-0.5-2.5-0.9c0.6-1.4,1.6-2.6,2.9-3.4
			c2.1-1.4,4.7-2.1,7.2-2.1c1.9,0,3.8-0.1,5.7-0.4c-0.2-0.2-0.5-0.4-0.7-0.6c-3.1-1.7-6.3-3.4-9.3-5.1c-0.9-0.5-1.4-0.4-1.9,0.5
			c-0.4,0.8-0.8,1.6-1.3,2.3c-1.3,1.7-3.1,2.8-5.2,2.3c-3-0.7-6-1.8-8.9-2.8c-0.6-0.3-1.3-0.7-1.8-1.2c5.1-5.2,10.9-3.1,16.6-2
			l0.2-0.5c-0.6-0.4-1.1-0.9-1.7-1.3c-2.2-1.9-4.4-3.8-6.6-5.8c-1.3-1.1-1.6-1.1-2.6,0.2c-2.7,3.3-5,3.9-8.7,2.1
			c-2.3-1.2-4.5-2.5-6.6-4c-0.5-0.4-0.9-0.9-1.3-1.4c6-4.1,11.3-1,16.7,1.3l0.2-0.4c-0.5-0.7-1-1.3-1.5-2c-1.7-2.2-3.4-4.4-5.1-6.7
			c-1-1.3-1.1-1.4-2.5-0.4c-0.3,0.2-0.5,0.4-0.8,0.6c-2.1,1.8-4.7,2.3-6.9,0.7c-2.5-2-5-4.1-7.3-6.3c-0.2-0.2-0.3-0.4-0.4-0.7
			c-0.1-0.2-0.1-0.4-0.2-0.7c2.3-1.2,5-1.4,7.5-0.4c2.1,1,4.2,2.1,6.1,3.4c0.8,0.6,1.7,1,2.6,1.3c-0.1-0.3-0.3-0.7-0.4-1.1
			c-1.4-3-2.8-6-4.2-9c-0.5-1.1-1-1.4-2.1-0.8c-0.7,0.4-1.4,0.7-2.1,1c-2.2,0.8-4.4,0.6-6-1.2c-2-2.4-3.8-4.9-5.5-7.6
			c-0.8-1.2-0.4-1.6,1-1.7c3.3-0.2,6.5,1,8.8,3.3c1.1,1,2,2.1,3.1,3.2c0.5,0.5,1.1,0.9,1.8,1.2c-0.2-0.8-0.5-1.7-0.6-2.5
			c-0.6-2.8-1.3-5.5-1.8-8.3c-0.2-1-0.6-1.3-1.6-1.1c-0.7,0.2-1.3,0.4-2,0.5c-2.5,0.5-4.9-0.1-6.1-2.4c-1.4-2.7-2.7-5.5-3.7-8.4
			c-0.5-1.3-0.1-1.6,1.4-1.4c3.2,0.4,6.1,2.2,7.9,5c0.8,1.1,1.4,2.4,2.2,3.5c0.4,0.6,0.8,1.2,1.2,1.8l0.4-0.1V76
			c0-3.1-0.1-6.2,0-9.3c0-1.6-0.1-1.9-1.7-1.8c-0.8,0-1.6,0-2.3,0c-2.3-0.2-4.2-1.3-4.8-3.5c-0.8-2.7-1.3-5.5-1.8-8.3
			c-0.3-1.7,0.7-2,2.2-1.5c2.5,0.9,4.6,2.8,5.6,5.2c0.8,1.6,1.2,3.3,1.9,4.9c0.3,0.7,0.5,1.3,0.8,2h0.4c0.1-0.8,0.3-1.5,0.5-2.3
			c0.6-2.8,1.2-5.7,2-8.5c0.3-1.2,0-1.6-1.1-1.8h-0.1c-5.6-0.3-6.9-3.8-7-8c0.1-2.1,0.4-4.2,0.9-6.3c0.2-1,0.7-1.1,1.6-0.6
			c2.8,1.5,4.7,4.2,5.2,7.3c0.4,1.9,0.5,3.8,0.8,5.8c0.1,0.4,0.2,0.9,0.3,1.3c0.4-0.7,0.6-1.1,0.7-1.4c1.4-3,2.7-5.9,4.1-8.9
			c0.6-1.3,0.6-1.6-0.8-2.1c-0.8-0.3-1.6-0.6-2.4-1c-1.8-1-3-2.7-2.7-4.8c0.5-3,1.2-6,2.1-9c0.4-1.5,1-1.5,2.1-0.4
			c3.1,2.8,3.6,6.4,3.1,10.3c-0.2,1.4-0.3,2.9-0.5,4.3l0.4,0.2c0.3-0.3,0.5-0.5,0.7-0.8c2-2.6,4-5.3,6-7.9c0.9-1.2,0.9-1.5-0.4-2.4
			c-0.5-0.3-1-0.6-1.5-1c-1.9-1.4-2.9-3.3-2.2-5.7c0.8-3.1,2.3-6,4.2-8.5c0.3-0.4,0.7-0.7,1.1-1c5,5.2,2.1,10.6,0.3,16l0.4,0.1
			c0.3-0.3,0.7-0.5,1-0.8c2.5-2.2,5-4.4,7.6-6.5c1.1-0.9,1.1-1.2,0.1-2.1c-0.4-0.4-0.8-0.7-1.1-1c-1.9-1.9-2.5-4.2-1-6.4
			c1.7-2.6,3.7-5,5.8-7.3c1-1.1,1.4-0.9,2,0.5c1.5,3.3,0.8,6.4-0.9,9.4c-0.7,1.3-1.5,2.5-2.3,3.7c-0.3,0.5-0.4,1-0.4,1.5
			c0.4-0.2,0.8-0.4,1.3-0.6c2.2-1.2,4.4-2.5,6.6-3.7c1.4-0.8,1.5-1,0.6-2.3c-1.8-2.5-1.7-4.4,0.5-6.5c1.6-1.5,3.3-2.8,5.1-4
			c0.9-0.7,1.5-0.3,1.7,0.8c0.3,2.3-0.3,4.6-1.8,6.3c-0.8,1-1.7,1.8-2.5,2.8c-0.5,0.5-0.8,1-1.1,1.6c1.8-0.5,3.7-0.6,5-2.2
			c1.5-1.8,3.7-2.7,6-2.5c2.4,0.1,4.7,0.9,6.8,2.1c-1.4,2.5-4.2,3.9-7.1,3.6c-1.6-0.3-3.3-0.7-4.8-1.2c-1.4-0.5-2.9-0.3-4.1,0.4
			c-1.7,0.9-3.3,1.7-5,2.6c-0.4,0.2-0.7,0.4-1.1,0.7l0.1,0.4c0.9-0.1,1.9-0.1,2.8-0.2c4-0.6,7.5,0,9.7,3.9c0.1,0.2,0.2,0.4,0.5,0.9
			c-1.3,0.3-2.5,0.6-3.8,0.8c-2.6,0.3-5.1,0.3-7.2-1.6c-0.8-0.8-1.5-1.6-2.1-2.6c-0.6-0.8-1.2-1.2-2.2-0.5c-2.9,2.1-5.7,4.1-8.6,6.2
			c-0.2,0.1-0.3,0.4-0.7,1c2-0.4,3.6-0.6,5.2-1c4.4-0.9,8.1,0.7,10.3,4.5c-0.1,0.1-0.2,0.3-0.3,0.4c-4,1.7-11,3.1-14.4-2.3
			c-1-1.5-1.5-1.5-2.8-0.2c-2.5,2.6-4.9,5.2-7.3,7.8l0.3,0.5c0.6-0.1,1.2-0.2,1.7-0.4c1.9-0.8,3.8-1.4,5.7-2c3.3-0.8,6,0.8,8.3,3
			c-0.1,0.2-0.1,0.4-0.2,0.5c-3.8,2.7-10.2,5.1-14.5,0.7c-1.4-1.4-1.8-1.3-2.9,0.4c-1.6,2.6-3.1,5.3-4.7,7.9
			c-0.2,0.5-0.4,0.9-0.5,1.4l0.3,0.3c1-0.7,2-1.3,3-2c2.1-1.4,4.2-2.7,6.9-2.6c2,0.1,3.8,0.8,5.4,1.9c0,0.2,0,0.3-0.1,0.4
			c-2.6,4.3-9.6,6.3-13.9,3.8c-2-1.1-2.4-1-3.1,1.1c-1,3-1.9,6-2.8,9c-0.1,0.2,0,0.5,0.3,1c0.9-0.8,1.7-1.6,2.6-2.5
			c1.6-1.7,3.3-3.5,5.8-3.8c1.9-0.1,3.7,0.1,5.6,0.5c0.3,0.3,0.4,0.7,0.4,1.1c-2.1,3-4.4,5.8-8.3,6.4c-1.4,0.1-2.8,0-4.2-0.4
			c-2.2-0.6-2.6-0.5-2.8,1.7c-0.4,3-0.5,6-0.8,9c0,0.5,0.1,0.9,0.4,1.3c0.4-0.6,0.9-1.1,1.3-1.7c0.7-1,1.3-2.1,2-3.1
			c2.4-3.4,5.8-4.2,9.8-3.4c0,0.4,0,0.7-0.1,1.1c-0.9,2.5-2.5,4.8-4.5,6.5c-1.8,1.5-4.2,2.1-6.5,1.6c-2-0.3-2.5,0-2.3,2
			c0.3,3,0.8,6,1.2,9c0.1,0.5,0.2,0.9,0.4,1.3l0.4,0.1c0.3-0.6,0.6-1.2,0.8-1.8c0.6-1.5,1.1-3.1,1.9-4.6c1.5-3,4.4-4,7.5-4.4
			c0.3,0,0.9,0.6,0.8,0.9c-0.7,4.8-3,10.3-9.3,10.4c-1.7,0-2.1,0.6-1.6,2.2c1,3,2.2,6,3.3,9c0.2,0.4,0.2,1.3,1.1,0.7L21.1,98z
			 M115.3,118.8H115l-0.5,7.9h0.2C114.9,124.1,115.1,121.5,115.3,118.8L115.3,118.8z M41.7,10.6l-0.2-0.1L41,17.8h0.2L41.7,10.6z
			 M142.4,80L142.4,80l3.2,3.5l0,0L142.4,80z M122.5,11.9h-0.3l0.4,5.8h0.2L122.5,11.9z M127.3,34.2v0.1h6.2v-0.1H127.3z M36.6,34.3
			v-0.1h-6.3v0.1H36.6z M48.9,124.3h0.2l-0.4-5.8h-0.2L48.9,124.3z"/>
		<path class="st0" d="M21.2,95.6l-0.1-1.1c0.3-1.9,0.4-3.8,0.8-5.6c0.9-3.8,3.4-6,7.6-6.8c0.1,1.1,0.2,2.1,0.2,3.2
			c-0.1,1.4-0.4,2.7-0.8,4c-0.7,2.5-2.7,4.5-5.2,5.3C22.9,94.9,22,95.2,21.2,95.6z"/>
		<path class="st0" d="M122.3,57.9v49.5H41.5V53.7c2.3,1.7,3.6,4.7,7.1,4.6c-0.8,1.4,0.3,1.8,1.1,2.3c1.4-2.5,1.4-2.5,3.6-2.1
			l-1.6,3.7c1.3,0.4,2.2,0.4,2.6-1.1c0.1-0.4,0.3-0.8,0.5-1.1c0.9-1.9,0.9-1.9,3.2-1.6L56.4,62c1.6,0.6,1.9,0.5,2.5-0.9l0.5-1
			c0.9-2,0.9-2,3.3-1.8L61,62.1c1.3,0.4,2.3,0.3,2.6-1.1c0.1-0.3,0.3-0.7,0.5-1c0.9-2,0.9-2,3.3-1.7L65.8,62
			c1.6,0.6,1.9,0.5,2.6-0.9c0.2-0.3,0.3-0.7,0.4-1c0.9-2,0.9-2,3.3-1.8l-1.6,3.8c1.4,0.5,2.3,0.2,2.7-1.2c0.1-0.3,0.3-0.7,0.4-1
			c0.8-1.9,0.8-1.9,3.2-1.5l-1.6,3.8c1.3,0.4,2.2,0.4,2.6-1.1c0.1-0.3,0.3-0.7,0.4-1c0.9-2,0.9-2,3.3-1.7L79.9,62
			c1.6,0.6,1.9,0.5,2.5-0.9L83,60c0.9-1.9,0.9-1.9,3.2-1.6l-1.6,3.8c1.3,0.4,2.3,0.3,2.6-1.1c0.1-0.4,0.3-0.8,0.5-1.1
			c0.8-1.9,0.8-1.9,3.2-1.5l-1.6,3.7c1.2,0.4,2.2,0.4,2.6-1c0.1-0.3,0.3-0.7,0.4-1c0.9-2,0.9-2,3.3-1.7L94,62.2
			c1.3,0.4,2.2,0.3,2.6-1.1c0.1-0.3,0.2-0.6,0.4-0.9c1.1-2.2,0.4-2,3.3-1.8l-1.6,3.9c1.2,0.4,2.2,0.4,2.6-1c0.1-0.3,0.3-0.7,0.4-1
			c0.9-2,0.9-2,3.3-1.8l-1.7,3.8c1.3,0.4,2.3,0.3,2.6-1.1c0.1-0.3,0.3-0.7,0.4-1c0.4-1.7,1.5-2.2,3.2-1.6l-1.6,3.8
			c1.3,0.4,2.3,0.4,2.7-1.2c0.1-0.3,0.2-0.6,0.4-0.9c0.9-2,0.9-2,3.3-1.8l-1.7,3.9c1.4,0.4,2.4,0.2,2.8-1.2c0.1-0.3,0.2-0.5,0.3-0.8
			c0.9-2.1,0.9-2.1,3.3-1.8c-0.6,1.3-1.1,2.5-1.6,3.8c1.9,0.5,2,0.5,2.8-1.3c0.3-0.7,0.6-1.4,0.9-2
			C121.5,58.5,121.8,58.4,122.3,57.9z M121.3,63.4H42.5v34.8h78.8L121.3,63.4z M116.7,99.8c-4,0-4.6,0.6-4.2,4.6
			c-0.1,1.1,0.8,2,1.9,2.1c0,0,0.1,0,0.1,0c1.5,0.1,3,0.1,4.4,0c1.1,0,2-0.9,2-2c0,0,0,0,0-0.1C121.2,100.4,120.6,99.8,116.7,99.8z
			 M64.7,106.5c4,0,4.3-0.3,4.2-4.3c0-0.1,0-0.2,0-0.3c0.1-1.1-0.8-2-1.9-2.1c0,0-0.1,0-0.1,0c-1.5-0.1-2.9-0.1-4.4,0
			c-1-0.1-1.8,0.7-1.9,1.7C60.5,105.2,60,106.8,64.7,106.5L64.7,106.5z M83.8,99.8c-2,0-3.8,0-5.6,0c-1.1-0.1-2.1,0.8-2.2,2
			c-0.1,1.1,0.8,2.1,2,2.2c0.1,0,0.2,0,0.3,0c1.1,0,2.1,0,3.2,0c0.4,0.1,0.8,0.2,1.2,0.4c-0.4,0.2-0.8,0.6-1.2,0.6
			c-1.6,0.1-3.3,0-4.9,0v1.6c1.9,0,3.7,0,5.6,0c1.1,0.1,2.1-0.8,2.1-1.9c0,0,0-0.1,0-0.1c0.1-1.1-0.8-2.1-1.9-2.1
			c-0.1,0-0.2,0-0.3,0c-1.1,0-2.1,0-3.2,0c-0.4-0.1-0.8-0.3-1.1-0.5c0.3-0.2,0.7-0.4,1.1-0.5c1.6-0.1,3.3,0,5,0L83.8,99.8z
			 M57.4,104.4c1.8-0.4,2.4-1,2.4-2.4c0-1.1-0.4-2.2-1.6-2.2c-2.2-0.2-4.5,0-6.8,0v6.7l1.5-0.1v-5.1c1.5,0,2.8,0,4.1,0
			c0.4,0,0.8,0.4,1.2,0.7c-0.4,0.2-0.8,0.6-1.2,0.6c-1,0.1-2.1,0-3.1,0c1.7,1.3,2,4.3,5.2,3.7L57.4,104.4z M102.2,106.4
			c1.8,0,3.6,0.1,5.4,0c1.3-0.1,1.9-0.9,1.9-2.4c0.1-3-0.3-4.1-1.8-4.2c-1.8-0.2-3.7,0-5.6,0V106.4z M42.3,99.8v6.7h1.4l0.2-2.1
			c1.7,0,3.3,0,4.9,0c1.2-0.2,2.1-1.4,1.9-2.7c-0.2-0.9-0.9-1.7-1.9-1.9C46.7,99.7,44.6,99.8,42.3,99.8z M93.2,99.8
			c0,1.7,0,3.2,0,4.7c-0.1,1,0.7,1.9,1.7,2c0.1,0,0.2,0,0.3,0c1.4,0,2.8,0,4.1,0c1,0.1,2-0.6,2.1-1.7c0-0.1,0-0.2,0-0.2
			c0.1-1.6,0-3.1,0-4.8h-1.5v5.1c-1.5,0-2.8,0-4.1,0c-0.9,0-1.1-0.3-1.1-1.1c0.1-1.3,0-2.6,0-4L93.2,99.8z M88,106.5l1.6-0.1v-5.1h3
			l-0.1-1.5H85v1.5l3,0.1V106.5z M110.3,99.8v6.6h1.4v-6.6L110.3,99.8z"/>
		<path class="st0" d="M67.3,48c2.3-0.8,2.3-0.8,3.7,1c0.5,0.6,0.9,1.3,1.4,1.9c-1.8,1.1-2.2,1-3.4-0.6L67.3,48z"/>
		<path class="st0" d="M108.5,38.4c2.3-0.7,2.3-0.8,3.6,0.9l1.5,2c-2,1-2.2,1-3.4-0.6C109.7,39.9,109.1,39.2,108.5,38.4z"/>
		<path class="st0" d="M58.1,50.1c2.3-0.8,2.3-0.8,3.7,1l1.4,1.9c-1.9,1.1-2.2,1-3.3-0.6C59.3,51.7,58.7,51,58.1,50.1z"/>
		<path class="st0" d="M81.6,48.8c-2.3,0.9-2.3,0.9-3.6-0.8l-1.5-2c1.9-1.1,2.2-1,3.4,0.6L81.6,48.8z"/>
		<path class="st0" d="M90.8,46.7c-2.4,0.8-2.4,0.8-3.7-1l-1.4-1.9c2.1-1.1,2.1-1,3.4,0.7C89.7,45.2,90.2,46,90.8,46.7z"/>
		<path class="st0" d="M118.3,40.3c-2.8,0.7-2.8,0.7-5-3c1.9-1,2.1-1,3.3,0.7L118.3,40.3z"/>
		<path class="st0" d="M49.3,56.3c-2.2,0.9-2.2,0.9-3.5-0.8l-1.6-2.1c2.1-1,2.1-1,3.5,0.8L49.3,56.3z"/>
		<path class="st0" d="M58.7,54.2C56.3,55,56.3,55,55,53.1c-0.5-0.6-0.9-1.2-1.4-1.9c2.2-1,2.2-1,3.5,0.8
			C57.6,52.7,58.1,53.4,58.7,54.2z"/>
		<path class="st0" d="M99.9,44.5c-2.3,0.8-2.3,0.8-3.6-0.9c-0.5-0.6-1-1.3-1.5-2c2.3-0.8,2.3-0.8,3.6,0.9
			C98.9,43.2,99.4,43.9,99.9,44.5z"/>
		<path class="st0" d="M95.3,45.6c-2.2,0.9-2.2,0.9-3.4-0.7c-0.5-0.7-1-1.4-1.6-2.1c1.8-1.1,2.2-1,3.4,0.6
			C94.2,44.1,94.7,44.8,95.3,45.6z"/>
		<path class="st0" d="M104.5,43.5c-2.2,0.9-2.3,0.9-3.6-0.8c-0.5-0.7-1-1.4-1.6-2.1c2.3-0.8,2.3-0.8,3.6,1L104.5,43.5z"/>
		<path class="st0" d="M54,55.3c-2.3,0.8-2.3,0.8-3.6-0.9l-1.5-2c1.8-1,2.2-1,3.3,0.5L54,55.3z"/>
		<path class="st0" d="M62.7,49c2.4-0.7,2.4-0.7,3.7,1l1.4,2c-2,1-2.2,1-3.5-0.7L62.7,49z"/>
		<path class="st0" d="M77,49.9c-2.2,0.9-2.3,0.9-3.6-0.8L72,47c1.9-1,2.2-1,3.4,0.6L77,49.9z"/>
		<path class="st0" d="M81.1,44.8c2.3-0.9,2.3-0.9,3.6,0.9l1.5,2c-2,1-2.2,0.9-3.5-0.8C82.1,46.3,81.6,45.6,81.1,44.8z"/>
		<path class="st0" d="M104,39.5c2.3-0.8,2.3-0.8,3.6,0.8l1.6,2.1c-2.2,0.9-2.2,0.9-3.6-0.8C105,40.9,104.5,40.2,104,39.5z"/>
		<path class="st0" d="M120.1,35.6l0.9,4c-1.8-0.6-2.3-2.2-3.5-3.4L120.1,35.6z"/>
		<path class="st0" d="M85.9,83.9c2-1.3,3.5-3.2,4.5-5.4c0.2-0.4,0.6-0.6,1-0.6c6.5,0,13-0.1,19.5,0.1c4.7,0.2,8.4,4.1,8.4,8.8
			c0.2,4.7-3.3,8.8-8,9.3c-0.6,0.1-1.3,0.1-1.9,0.1c-17.5,0-35.1,0-52.6,0h-1.6v-9H61c0.8,2.6,1.3,3,4.2,3h44c0.5,0,1,0,1.4-0.1
			c1.6-0.2,2.7-1.6,2.6-3.2c-0.1-1.5-1.3-2.8-2.9-2.8c-1.7-0.1-3.3,0-5,0L85.9,83.9z"/>
		<path class="st0" d="M50.6,77.8h28.8c4.2,0,5-0.9,4.2-5.1h6c1.6,4.7-2.1,10.3-7.1,11c-0.9,0.1-1.7,0.2-2.6,0.2H50.5V96h-6.1V65.7
			h33.6c-2.2,1.3-3.9,3.2-4.8,5.6c-0.1,0.3-0.9,0.4-1.4,0.4c-6.6,0-13.1,0-19.7,0h-1.6V77.8z"/>
		<path class="st0" d="M113.3,74.7c-0.6-2.5-1.2-3-3.6-3H83.6c-3.3,0-4.6,1.9-3.3,5.1H74c-1.5-4.5,2.1-10.2,7-11
			c0.7-0.1,1.4-0.2,2.1-0.2h34.9c0.4,0,0.8,0,1.3,0.1v9L113.3,74.7z"/>
		<path class="st0" d="M116.1,105.3v-4.1l2.8,2.1L116.1,105.3z"/>
		<path class="st0" d="M62.4,101.5l1.5-0.1v3.5h-1.5V101.5z"/>
		<path class="st0" d="M65.3,101.4h1.6v3.4c-1,0.3-1.7,0.3-1.6-1.1C65.4,103,65.3,102.3,65.3,101.4z"/>
		<path class="st0" d="M103.9,105v-3.6c1.2,0,2.4,0,3.6,0c0.2,0,0.5,0.4,0.6,0.6c0.6,2.2,0,2.9-2.3,2.9L103.9,105z"/>
		<path class="st0" d="M44.1,102.8v-1.2c0.1-0.1,0.3-0.1,0.4-0.1c1.3,0,2.7-0.1,4,0c0.3,0,0.6,0.4,0.9,0.6c-0.3,0.3-0.6,0.7-0.9,0.7
			C47.1,102.8,45.7,102.8,44.1,102.8z"/>
	</g>
</g>
</svg>
